<svg id="svg" version="1.1" xmlns="http://www.w3.org/2000/svg" xmlns:xlink="http://www.w3.org/1999/xlink" width="400" height="225" viewBox="0, 0, 400,225"><g id="svgg"><path id="path0" d="M170.671 0.647 C 171.110 1.246,200.098 29.200,200.413 29.328 C 200.591 29.401,228.702 1.938,229.284 1.123 C 229.521 0.792,229.784 0.404,229.869 0.260 C 229.993 0.053,223.986 -0.000,200.110 -0.000 L 170.196 -0.000 170.671 0.647 M12.513 83.351 C 8.463 83.876,4.427 85.936,1.663 88.892 C 0.974 89.627,0.318 90.172,0.205 90.102 C 0.069 90.018,0.016 98.804,0.051 115.855 C 0.089 134.103,0.170 141.758,0.328 141.811 C 0.613 141.906,28.383 114.780,29.403 113.412 C 39.657 99.649,29.280 81.182,12.513 83.351 M181.458 83.422 C 167.997 86.410,162.004 101.682,170.079 112.422 C 170.851 113.450,199.915 141.625,200.412 141.828 C 200.633 141.918,228.556 114.548,229.403 113.412 C 232.373 109.424,233.573 106.083,233.583 101.771 C 233.620 85.185,212.929 76.848,201.651 88.904 L 200.388 90.255 199.204 89.022 C 194.768 84.402,187.449 82.092,181.458 83.422 M381.458 83.422 C 367.677 86.481,361.751 102.615,370.585 113.029 C 371.237 113.798,378.099 120.494,385.833 127.909 L 399.896 141.391 399.949 115.677 L 400.002 89.962 399.553 89.332 C 396.521 85.075,387.414 82.100,381.458 83.422 M181.458 195.922 C 168.440 198.812,162.331 213.103,169.451 224.010 L 170.097 225.000 200.105 225.000 L 230.112 225.000 230.975 223.594 C 235.943 215.496,233.741 204.867,225.938 199.277 C 218.337 193.833,207.876 194.749,201.651 201.404 L 200.388 202.755 199.204 201.522 C 194.768 196.902,187.449 194.592,181.458 195.922 " stroke="none" fill="#fb3333" fill-rule="evenodd"></path><path id="path1" d="M0.000 44.884 C 0.000 75.407,0.069 89.809,0.214 89.899 C 0.332 89.972,0.860 89.552,1.387 88.966 C 9.515 79.926,25.158 81.712,31.228 92.373 C 35.101 99.176,34.551 106.773,29.720 113.200 C 28.018 115.463,0.610 142.122,0.273 141.842 C 0.048 141.656,0.000 148.974,0.000 183.308 L 0.000 225.000 84.980 225.000 L 169.959 225.000 169.039 223.599 C 165.708 218.527,165.331 211.811,168.072 206.354 C 174.113 194.330,189.176 191.707,198.796 201.005 L 200.404 202.560 201.375 201.479 C 206.543 195.731,215.431 193.980,222.756 197.266 C 232.936 201.834,236.843 214.353,231.035 223.793 C 230.695 224.346,230.417 224.843,230.417 224.899 C 230.417 224.955,268.573 225.000,315.208 225.000 L 400.000 225.000 400.000 183.343 L 400.000 141.686 386.927 129.160 C 371.290 114.178,370.207 113.081,368.879 110.867 C 360.140 96.297,374.775 78.561,391.146 83.884 C 394.226 84.885,397.064 86.600,399.088 88.684 L 400.000 89.622 400.000 44.811 L 400.000 0.000 315.122 -0.000 L 230.244 -0.000 229.512 0.997 C 228.924 1.798,212.784 17.716,202.569 27.570 L 200.451 29.613 187.152 16.877 C 179.838 9.873,172.953 3.210,171.851 2.071 L 169.849 0.000 84.924 0.000 L 0.000 0.000 0.000 44.884 M188.125 83.131 C 192.197 83.766,195.736 85.548,198.796 88.505 L 200.404 90.060 201.375 88.979 C 213.622 75.358,237.236 87.366,233.440 105.285 C 232.167 111.294,230.790 112.845,202.569 140.070 L 200.451 142.113 187.152 129.376 C 171.319 114.211,170.214 113.092,168.879 110.867 C 160.908 97.577,172.610 80.713,188.125 83.131 " stroke="none" fill="#040404" fill-rule="evenodd"></path><path id="path2" d="M171.866 2.135 C 172.730 3.055,172.917 3.221,172.917 3.064 C 172.917 3.031,172.471 2.585,171.927 2.075 L 170.938 1.146 171.866 2.135 M225.305 5.260 L 224.271 6.354 225.365 5.320 C 225.966 4.752,226.458 4.260,226.458 4.227 C 226.458 4.071,226.265 4.244,225.305 5.260 M176.875 6.940 C 176.875 6.976,177.180 7.281,177.552 7.617 L 178.229 8.229 177.617 7.552 C 177.047 6.921,176.875 6.779,176.875 6.940 M216.555 13.802 L 215.521 14.896 216.615 13.862 C 217.216 13.293,217.708 12.801,217.708 12.768 C 217.708 12.613,217.515 12.786,216.555 13.802 M187.083 16.732 C 187.083 16.768,187.388 17.072,187.760 17.409 L 188.438 18.021 187.826 17.344 C 187.255 16.713,187.083 16.571,187.083 16.732 M207.596 22.552 L 206.563 23.646 207.656 22.612 C 208.673 21.651,208.846 21.458,208.690 21.458 C 208.657 21.458,208.165 21.951,207.596 22.552 M192.292 21.732 C 192.292 21.768,192.596 22.072,192.969 22.409 L 193.646 23.021 193.034 22.344 C 192.464 21.713,192.292 21.571,192.292 21.732 M197.500 26.732 C 197.500 26.768,197.805 27.072,198.177 27.409 L 198.854 28.021 198.242 27.344 C 197.672 26.713,197.500 26.571,197.500 26.732 M185.992 83.064 C 186.251 83.114,186.626 83.112,186.825 83.060 C 187.025 83.008,186.813 82.967,186.354 82.969 C 185.896 82.972,185.733 83.014,185.992 83.064 M385.992 83.064 C 386.251 83.114,386.626 83.112,386.825 83.060 C 387.025 83.008,386.813 82.967,386.354 82.969 C 385.896 82.972,385.733 83.014,385.992 83.064 M25.305 117.760 L 24.271 118.854 25.365 117.820 C 25.966 117.252,26.458 116.760,26.458 116.727 C 26.458 116.571,26.265 116.744,25.305 117.760 M225.305 117.760 L 224.271 118.854 225.365 117.820 C 225.966 117.252,226.458 116.760,226.458 116.727 C 226.458 116.571,226.265 116.744,225.305 117.760 M176.875 119.440 C 176.875 119.476,177.180 119.781,177.552 120.117 L 178.229 120.729 177.617 120.052 C 177.047 119.421,176.875 119.279,176.875 119.440 M376.875 119.440 C 376.875 119.476,377.180 119.781,377.552 120.117 L 378.229 120.729 377.617 120.052 C 377.047 119.421,376.875 119.279,376.875 119.440 M381.875 124.232 C 381.875 124.268,382.180 124.572,382.552 124.909 L 383.229 125.521 382.617 124.844 C 382.047 124.213,381.875 124.071,381.875 124.232 M16.555 126.302 L 15.521 127.396 16.615 126.362 C 17.216 125.793,17.708 125.301,17.708 125.268 C 17.708 125.113,17.515 125.286,16.555 126.302 M216.555 126.302 L 215.521 127.396 216.615 126.362 C 217.216 125.793,217.708 125.301,217.708 125.268 C 217.708 125.113,217.515 125.286,216.555 126.302 M187.083 129.232 C 187.083 129.268,187.388 129.572,187.760 129.909 L 188.438 130.521 187.826 129.844 C 187.255 129.213,187.083 129.071,187.083 129.232 M387.083 129.232 C 387.083 129.268,387.388 129.572,387.760 129.909 L 388.438 130.521 387.826 129.844 C 387.255 129.213,387.083 129.071,387.083 129.232 M7.596 135.052 L 6.563 136.146 7.656 135.112 C 8.258 134.543,8.750 134.051,8.750 134.018 C 8.750 133.863,8.557 134.036,7.596 135.052 M207.596 135.052 L 206.563 136.146 207.656 135.112 C 208.673 134.151,208.846 133.958,208.690 133.958 C 208.657 133.958,208.165 134.451,207.596 135.052 M192.292 134.232 C 192.292 134.268,192.596 134.572,192.969 134.909 L 193.646 135.521 193.034 134.844 C 192.464 134.213,192.292 134.071,192.292 134.232 M392.292 134.232 C 392.292 134.268,392.596 134.572,392.969 134.909 L 393.646 135.521 393.034 134.844 C 392.464 134.213,392.292 134.071,392.292 134.232 M197.500 139.232 C 197.500 139.268,197.805 139.572,198.177 139.909 L 198.854 140.521 198.242 139.844 C 197.672 139.213,197.500 139.071,197.500 139.232 M185.992 195.564 C 186.251 195.614,186.626 195.612,186.825 195.560 C 187.025 195.508,186.813 195.467,186.354 195.469 C 185.896 195.472,185.733 195.514,185.992 195.564 " stroke="none" fill="#5e1111" fill-rule="evenodd"></path><path id="path3" d="M227.388 3.177 L 226.354 4.271 227.448 3.237 C 228.049 2.668,228.542 2.176,228.542 2.143 C 228.542 1.988,228.349 2.161,227.388 3.177 M175.825 5.885 C 176.688 6.805,176.875 6.971,176.875 6.814 C 176.875 6.781,176.430 6.335,175.885 5.825 L 174.896 4.896 175.825 5.885 M219.167 11.146 C 218.313 12.005,217.661 12.708,217.719 12.708 C 217.776 12.708,218.521 12.005,219.375 11.146 C 220.229 10.286,220.880 9.583,220.823 9.583 C 220.766 9.583,220.020 10.286,219.167 11.146 M181.033 10.885 C 181.544 11.430,181.989 11.875,182.023 11.875 C 182.179 11.875,182.014 11.688,181.094 10.825 L 180.104 9.896 181.033 10.885 M186.146 15.833 C 186.593 16.292,187.006 16.667,187.064 16.667 C 187.121 16.667,186.802 16.292,186.354 15.833 C 185.907 15.375,185.494 15.000,185.436 15.000 C 185.379 15.000,185.698 15.375,186.146 15.833 M210.308 19.844 L 208.646 21.563 210.365 19.901 C 211.961 18.357,212.178 18.125,212.026 18.125 C 211.995 18.125,211.222 18.898,210.308 19.844 M191.354 20.833 C 191.802 21.292,192.215 21.667,192.272 21.667 C 192.329 21.667,192.010 21.292,191.563 20.833 C 191.115 20.375,190.702 20.000,190.645 20.000 C 190.587 20.000,190.907 20.375,191.354 20.833 M196.450 25.677 C 196.960 26.221,197.406 26.667,197.439 26.667 C 197.596 26.667,197.430 26.480,196.510 25.616 L 195.521 24.688 196.450 25.677 M201.764 28.177 L 200.521 29.479 201.823 28.236 C 202.539 27.552,203.125 26.966,203.125 26.934 C 203.125 26.780,202.919 26.968,201.764 28.177 M184.534 83.064 C 184.793 83.114,185.168 83.112,185.367 83.060 C 185.566 83.008,185.354 82.967,184.896 82.969 C 184.438 82.972,184.275 83.014,184.534 83.064 M384.534 83.064 C 384.793 83.114,385.168 83.112,385.367 83.060 C 385.566 83.008,385.354 82.967,384.896 82.969 C 384.438 82.972,384.275 83.014,384.534 83.064 M28.229 88.750 C 28.677 89.208,29.090 89.583,29.147 89.583 C 29.204 89.583,28.885 89.208,28.438 88.750 C 27.990 88.292,27.577 87.917,27.520 87.917 C 27.462 87.917,27.782 88.292,28.229 88.750 M228.229 88.750 C 228.677 89.208,229.090 89.583,229.147 89.583 C 229.204 89.583,228.885 89.208,228.438 88.750 C 227.990 88.292,227.577 87.917,227.520 87.917 C 227.462 87.917,227.782 88.292,228.229 88.750 M199.841 89.686 C 200.316 90.195,200.455 90.250,200.674 90.014 C 200.887 89.785,200.885 89.760,200.662 89.887 C 200.495 89.982,200.165 89.851,199.828 89.559 L 199.271 89.074 199.841 89.686 M27.292 115.729 C 26.786 116.245,26.418 116.667,26.476 116.667 C 26.533 116.667,26.994 116.245,27.500 115.729 C 28.006 115.214,28.373 114.792,28.316 114.792 C 28.259 114.792,27.798 115.214,27.292 115.729 M227.292 115.729 C 226.786 116.245,226.418 116.667,226.476 116.667 C 226.533 116.667,226.994 116.245,227.500 115.729 C 228.006 115.214,228.373 114.792,228.316 114.792 C 228.259 114.792,227.798 115.214,227.292 115.729 M175.825 118.385 C 176.335 118.930,176.781 119.375,176.814 119.375 C 176.971 119.375,176.805 119.188,175.885 118.325 L 174.896 117.396 175.825 118.385 M375.825 118.385 C 376.688 119.305,376.875 119.471,376.875 119.314 C 376.875 119.281,376.430 118.835,375.885 118.325 L 374.896 117.396 375.825 118.385 M19.167 123.646 C 18.313 124.505,17.661 125.208,17.719 125.208 C 17.776 125.208,18.521 124.505,19.375 123.646 C 20.229 122.786,20.880 122.083,20.823 122.083 C 20.766 122.083,20.020 122.786,19.167 123.646 M219.167 123.646 C 218.313 124.505,217.661 125.208,217.719 125.208 C 217.776 125.208,218.521 124.505,219.375 123.646 C 220.229 122.786,220.880 122.083,220.823 122.083 C 220.766 122.083,220.020 122.786,219.167 123.646 M181.033 123.385 C 181.544 123.930,181.989 124.375,182.023 124.375 C 182.179 124.375,182.014 124.188,181.094 123.325 L 180.104 122.396 181.033 123.385 M380.938 123.333 C 381.385 123.792,381.798 124.167,381.855 124.167 C 381.913 124.167,381.593 123.792,381.146 123.333 C 380.698 122.875,380.285 122.500,380.228 122.500 C 380.171 122.500,380.490 122.875,380.938 123.333 M186.146 128.333 C 186.593 128.792,187.006 129.167,187.064 129.167 C 187.121 129.167,186.802 128.792,186.354 128.333 C 185.907 127.875,185.494 127.500,185.436 127.500 C 185.379 127.500,185.698 127.875,186.146 128.333 M386.146 128.333 C 386.593 128.792,387.006 129.167,387.064 129.167 C 387.121 129.167,386.802 128.792,386.354 128.333 C 385.907 127.875,385.494 127.500,385.436 127.500 C 385.379 127.500,385.698 127.875,386.146 128.333 M10.308 132.344 L 8.646 134.063 10.365 132.401 C 11.310 131.487,12.083 130.713,12.083 130.682 C 12.083 130.530,11.851 130.747,10.308 132.344 M210.308 132.344 L 208.646 134.063 210.365 132.401 C 211.961 130.857,212.178 130.625,212.026 130.625 C 211.995 130.625,211.222 131.398,210.308 132.344 M391.241 133.177 C 392.105 134.097,392.292 134.262,392.292 134.106 C 392.292 134.072,391.846 133.627,391.302 133.116 L 390.313 132.188 391.241 133.177 M191.354 133.333 C 191.802 133.792,192.215 134.167,192.272 134.167 C 192.329 134.167,192.010 133.792,191.563 133.333 C 191.115 132.875,190.702 132.500,190.645 132.500 C 190.587 132.500,190.907 132.875,191.354 133.333 M196.450 138.177 C 196.960 138.721,197.406 139.167,197.439 139.167 C 197.596 139.167,197.430 138.980,196.510 138.116 L 195.521 137.188 196.450 138.177 M396.450 138.177 C 397.313 139.097,397.500 139.262,397.500 139.106 C 397.500 139.072,397.055 138.627,396.510 138.116 L 395.521 137.188 396.450 138.177 M1.764 140.677 L 0.521 141.979 1.823 140.736 C 3.032 139.581,3.220 139.375,3.066 139.375 C 3.034 139.375,2.448 139.961,1.764 140.677 M201.764 140.677 L 200.521 141.979 201.823 140.736 C 202.539 140.052,203.125 139.466,203.125 139.434 C 203.125 139.280,202.919 139.468,201.764 140.677 M184.534 195.564 C 184.793 195.614,185.168 195.612,185.367 195.560 C 185.566 195.508,185.354 195.467,184.896 195.469 C 184.438 195.472,184.275 195.514,184.534 195.564 M228.229 201.250 C 228.677 201.708,229.090 202.083,229.147 202.083 C 229.204 202.083,228.885 201.708,228.438 201.250 C 227.990 200.792,227.577 200.417,227.520 200.417 C 227.462 200.417,227.782 200.792,228.229 201.250 M199.841 202.186 C 200.316 202.695,200.455 202.750,200.674 202.514 C 200.887 202.285,200.885 202.260,200.662 202.387 C 200.495 202.482,200.165 202.351,199.828 202.059 L 199.271 201.574 199.841 202.186 " stroke="none" fill="#a32020" fill-rule="evenodd"></path><path id="path4" d="M173.542 3.854 C 173.930 4.255,174.295 4.583,174.353 4.583 C 174.410 4.583,174.139 4.255,173.750 3.854 C 173.361 3.453,172.996 3.125,172.939 3.125 C 172.882 3.125,173.153 3.453,173.542 3.854 M223.118 7.448 L 221.979 8.646 223.177 7.507 C 224.290 6.449,224.470 6.250,224.316 6.250 C 224.283 6.250,223.744 6.789,223.118 7.448 M178.125 8.190 C 178.125 8.226,178.430 8.531,178.802 8.867 L 179.479 9.479 178.867 8.802 C 178.297 8.171,178.125 8.029,178.125 8.190 M183.750 13.646 C 184.139 14.047,184.504 14.375,184.561 14.375 C 184.618 14.375,184.347 14.047,183.958 13.646 C 183.570 13.245,183.205 12.917,183.147 12.917 C 183.090 12.917,183.361 13.245,183.750 13.646 M214.264 16.094 L 213.021 17.396 214.323 16.152 C 215.039 15.468,215.625 14.883,215.625 14.850 C 215.625 14.696,215.419 14.884,214.264 16.094 M188.958 18.646 C 189.347 19.047,189.712 19.375,189.769 19.375 C 189.827 19.375,189.555 19.047,189.167 18.646 C 188.778 18.245,188.413 17.917,188.356 17.917 C 188.298 17.917,188.570 18.245,188.958 18.646 M194.167 23.646 C 194.555 24.047,194.920 24.375,194.978 24.375 C 195.035 24.375,194.764 24.047,194.375 23.646 C 193.986 23.245,193.621 22.917,193.564 22.917 C 193.507 22.917,193.778 23.245,194.167 23.646 M205.306 24.844 L 204.063 26.146 205.365 24.902 C 206.081 24.218,206.667 23.633,206.667 23.600 C 206.667 23.446,206.461 23.634,205.306 24.844 M198.750 27.982 C 198.750 28.018,199.055 28.322,199.427 28.659 L 200.104 29.271 199.492 28.594 C 198.922 27.963,198.750 27.821,198.750 27.982 M171.864 88.490 L 171.146 89.271 171.927 88.553 C 172.654 87.885,172.804 87.708,172.645 87.708 C 172.610 87.708,172.259 88.060,171.864 88.490 M371.864 88.490 L 371.146 89.271 371.927 88.553 C 372.357 88.158,372.708 87.806,372.708 87.772 C 372.708 87.613,372.532 87.762,371.864 88.490 M173.542 116.354 C 173.930 116.755,174.295 117.083,174.353 117.083 C 174.410 117.083,174.139 116.755,173.750 116.354 C 173.361 115.953,172.996 115.625,172.939 115.625 C 172.882 115.625,173.153 115.953,173.542 116.354 M372.917 115.690 C 372.917 115.726,373.221 116.031,373.594 116.367 L 374.271 116.979 373.659 116.302 C 373.089 115.671,372.917 115.529,372.917 115.690 M23.118 119.948 L 21.979 121.146 23.177 120.007 C 23.836 119.381,24.375 118.842,24.375 118.809 C 24.375 118.655,24.176 118.835,23.118 119.948 M223.118 119.948 L 221.979 121.146 223.177 120.007 C 224.290 118.949,224.470 118.750,224.316 118.750 C 224.283 118.750,223.744 119.289,223.118 119.948 M178.125 120.690 C 178.125 120.726,178.430 121.031,178.802 121.367 L 179.479 121.979 178.867 121.302 C 178.297 120.671,178.125 120.529,178.125 120.690 M378.125 120.690 C 378.125 120.726,378.430 121.031,378.802 121.367 L 379.479 121.979 378.867 121.302 C 378.297 120.671,378.125 120.529,378.125 120.690 M183.750 126.146 C 184.139 126.547,184.504 126.875,184.561 126.875 C 184.618 126.875,184.347 126.547,183.958 126.146 C 183.570 125.745,183.205 125.417,183.147 125.417 C 183.090 125.417,183.361 125.745,183.750 126.146 M383.750 126.146 C 384.139 126.547,384.504 126.875,384.561 126.875 C 384.618 126.875,384.347 126.547,383.958 126.146 C 383.570 125.745,383.205 125.417,383.147 125.417 C 383.090 125.417,383.361 125.745,383.750 126.146 M14.264 128.594 L 13.021 129.896 14.323 128.652 C 15.532 127.497,15.720 127.292,15.566 127.292 C 15.534 127.292,14.948 127.878,14.264 128.594 M214.264 128.594 L 213.021 129.896 214.323 128.652 C 215.532 127.497,215.720 127.292,215.566 127.292 C 215.534 127.292,214.948 127.878,214.264 128.594 M188.958 131.146 C 189.347 131.547,189.712 131.875,189.769 131.875 C 189.827 131.875,189.555 131.547,189.167 131.146 C 188.778 130.745,188.413 130.417,188.356 130.417 C 188.298 130.417,188.570 130.745,188.958 131.146 M388.958 131.146 C 389.347 131.547,389.712 131.875,389.769 131.875 C 389.827 131.875,389.555 131.547,389.167 131.146 C 388.778 130.745,388.413 130.417,388.356 130.417 C 388.298 130.417,388.570 130.745,388.958 131.146 M194.167 136.146 C 194.555 136.547,194.920 136.875,194.978 136.875 C 195.035 136.875,194.764 136.547,194.375 136.146 C 193.986 135.745,193.621 135.417,193.564 135.417 C 193.507 135.417,193.778 135.745,194.167 136.146 M393.542 135.482 C 393.542 135.518,393.846 135.822,394.219 136.159 L 394.896 136.771 394.284 136.094 C 393.714 135.463,393.542 135.321,393.542 135.482 M5.306 137.344 L 4.063 138.646 5.365 137.402 C 6.081 136.718,6.667 136.133,6.667 136.100 C 6.667 135.946,6.461 136.134,5.306 137.344 M205.306 137.344 L 204.063 138.646 205.365 137.402 C 206.081 136.718,206.667 136.133,206.667 136.100 C 206.667 135.946,206.461 136.134,205.306 137.344 M399.167 140.938 C 399.555 141.339,399.920 141.667,399.978 141.667 C 400.035 141.667,399.764 141.339,399.375 140.938 C 398.986 140.536,398.621 140.208,398.564 140.208 C 398.507 140.208,398.778 140.536,399.167 140.938 M198.750 140.482 C 198.750 140.518,199.055 140.822,199.427 141.159 L 200.104 141.771 199.492 141.094 C 198.922 140.463,198.750 140.321,198.750 140.482 M171.864 200.990 L 171.146 201.771 171.927 201.053 C 172.357 200.658,172.708 200.306,172.708 200.272 C 172.708 200.113,172.532 200.262,171.864 200.990 " stroke="none" fill="#320a0a" fill-rule="evenodd"></path></g></svg>